<?xml version="1.0" encoding="UTF-8"?>
<svg xmlns="http://www.w3.org/2000/svg" xmlns:xlink="http://www.w3.org/1999/xlink" width="107.446pt" height="84.769pt" viewBox="0 0 107.446 84.769">
<defs>
<clipPath id="clip-0">
<path clip-rule="nonzero" d="M 0 28 L 107.445312 28 L 107.445312 57 L 0 57 Z M 0 28 "/>
</clipPath>
</defs>
<path fill="none" stroke-width="0.79701" stroke-linecap="butt" stroke-linejoin="miter" stroke="rgb(0%, 0%, 0%)" stroke-opacity="1" stroke-miterlimit="10" d="M 0.00003125 -34.017344 L 0.00003125 33.306875 " transform="matrix(1, 0, 0, -1, 19.707, 42.385)"/>
<path fill="none" stroke-width="0.6376" stroke-linecap="round" stroke-linejoin="round" stroke="rgb(0%, 0%, 0%)" stroke-opacity="1" stroke-miterlimit="10" d="M -1.552626 2.070281 C -1.42372 1.296844 -0.001845 0.128875 0.38878 -0.00003125 C -0.001845 -0.128937 -1.42372 -1.296906 -1.552626 -2.070344 " transform="matrix(0, -1, -1, 0, 19.707, 9.07628)"/>
<path fill="none" stroke-width="0.79701" stroke-linecap="butt" stroke-linejoin="miter" stroke="rgb(0%, 0%, 0%)" stroke-opacity="1" stroke-miterlimit="10" d="M 17.007844 -34.017344 L 17.007844 33.306875 " transform="matrix(1, 0, 0, -1, 19.707, 42.385)"/>
<path fill="none" stroke-width="0.6376" stroke-linecap="round" stroke-linejoin="round" stroke="rgb(0%, 0%, 0%)" stroke-opacity="1" stroke-miterlimit="10" d="M -1.552626 2.070709 C -1.42372 1.293365 -0.001845 0.129302 0.38878 0.00039625 C -0.001845 -0.12851 -1.42372 -1.296479 -1.552626 -2.073823 " transform="matrix(0, -1, -1, 0, 36.71524, 9.07628)"/>
<path fill="none" stroke-width="0.79701" stroke-linecap="butt" stroke-linejoin="miter" stroke="rgb(0%, 0%, 0%)" stroke-opacity="1" stroke-miterlimit="10" d="M 34.015656 -34.017344 L 34.015656 33.306875 " transform="matrix(1, 0, 0, -1, 19.707, 42.385)"/>
<path fill="none" stroke-width="0.6376" stroke-linecap="round" stroke-linejoin="round" stroke="rgb(0%, 0%, 0%)" stroke-opacity="1" stroke-miterlimit="10" d="M -1.552626 2.070736 C -1.42372 1.293392 -0.001845 0.12933 0.38878 0.00042375 C -0.001845 -0.128483 -1.42372 -1.296451 -1.552626 -2.073795 " transform="matrix(0, -1, -1, 0, 53.72308, 9.07628)"/>
<path fill="none" stroke-width="0.79701" stroke-linecap="butt" stroke-linejoin="miter" stroke="rgb(0%, 0%, 0%)" stroke-opacity="1" stroke-miterlimit="10" d="M 51.023469 -34.017344 L 51.023469 33.306875 " transform="matrix(1, 0, 0, -1, 19.707, 42.385)"/>
<path fill="none" stroke-width="0.6376" stroke-linecap="round" stroke-linejoin="round" stroke="rgb(0%, 0%, 0%)" stroke-opacity="1" stroke-miterlimit="10" d="M -1.552626 2.071164 C -1.42372 1.29382 -0.001845 0.129758 0.38878 0.00085125 C -0.001845 -0.128055 -1.42372 -1.296024 -1.552626 -2.073367 " transform="matrix(0, -1, -1, 0, 70.73132, 9.07628)"/>
<path fill="none" stroke-width="0.79701" stroke-linecap="butt" stroke-linejoin="miter" stroke="rgb(0%, 0%, 0%)" stroke-opacity="1" stroke-miterlimit="10" d="M 68.031281 -34.017344 L 68.031281 33.306875 " transform="matrix(1, 0, 0, -1, 19.707, 42.385)"/>
<path fill="none" stroke-width="0.6376" stroke-linecap="round" stroke-linejoin="round" stroke="rgb(0%, 0%, 0%)" stroke-opacity="1" stroke-miterlimit="10" d="M -1.552626 2.071201 C -1.42372 1.293858 -0.001845 0.129795 0.38878 0.00088875 C -0.001845 -0.128017 -1.42372 -1.295986 -1.552626 -2.07333 " transform="matrix(0, -1, -1, 0, 87.73917, 9.07628)"/>
<g clip-path="url(#clip-0)">
<path fill="none" stroke-width="0.79701" stroke-linecap="butt" stroke-linejoin="miter" stroke="rgb(100%, 0%, 0%)" stroke-opacity="1" stroke-miterlimit="10" d="M -11.339813 -0.00171875 C -10.343719 -0.00171875 -9.843719 2.990469 -8.847625 2.990469 C -8.124969 2.990469 -7.503875 1.529531 -6.855438 -0.00171875 C -6.207 -1.529062 -5.585906 -2.99 -4.86325 -2.99 C -4.140594 -2.99 -3.5195 -1.529062 -2.871063 -0.00171875 C -2.218719 1.529531 -1.597625 2.990469 -0.878875 2.990469 C -0.156219 2.990469 0.464875 1.529531 1.113312 -0.00171875 C 1.765656 -1.529062 2.38675 -2.99 3.1055 -2.99 C 3.828156 -2.99 4.44925 -1.529062 5.101594 -0.00171875 C 5.750031 1.529531 6.371125 2.990469 7.093781 2.990469 C 7.812531 2.990469 8.433625 1.529531 9.085969 -0.00171875 C 9.734406 -1.529062 10.3555 -2.99 11.078156 -2.99 C 11.800812 -2.99 12.421906 -1.529062 13.070344 -0.00171875 C 13.718781 1.529531 14.339875 2.990469 15.062531 2.990469 C 15.785187 2.990469 16.406281 1.529531 17.054719 -0.00171875 C 17.703156 -1.529062 18.328156 -2.99 19.046906 -2.99 C 19.769562 -2.99 20.390656 -1.529062 21.039094 -0.00171875 C 21.691437 1.529531 22.312531 2.990469 23.031281 2.990469 C 23.753937 2.990469 24.375031 1.529531 25.027375 -0.00171875 C 25.675812 -1.529062 26.296906 -2.99 27.019562 -2.99 C 27.738312 -2.99 28.359406 -1.529062 29.01175 -0.00171875 C 29.660187 1.529531 30.281281 2.990469 31.003937 2.990469 C 31.722687 2.990469 32.347687 1.529531 32.996125 -0.00171875 C 33.644562 -1.529062 34.265656 -2.99 34.988312 -2.99 C 35.710969 -2.99 36.332062 -1.529062 36.9805 -0.00171875 C 37.628937 1.529531 38.253937 2.990469 38.972687 2.990469 C 39.695344 2.990469 40.316437 1.529531 40.964875 -0.00171875 C 41.617219 -1.529062 42.238312 -2.99 42.957062 -2.99 C 43.679719 -2.99 44.300812 -1.529062 44.94925 -0.00171875 C 45.601594 1.529531 46.222687 2.990469 46.945344 2.990469 C 47.664094 2.990469 48.285187 1.529531 48.937531 -0.00171875 C 49.585969 -1.529062 50.207062 -2.99 50.929719 -2.99 C 51.648469 -2.99 52.273469 -1.529062 52.921906 -0.00171875 C 53.570344 1.529531 54.191437 2.990469 54.914094 2.990469 C 55.63675 2.990469 56.257844 1.529531 56.906281 -0.00171875 C 57.554719 -1.529062 58.175812 -2.99 58.898469 -2.99 C 59.621125 -2.99 60.242219 -1.529062 60.890656 -0.00171875 C 61.543 1.529531 62.164094 2.990469 62.882844 2.990469 C 63.6055 2.990469 64.226594 1.529531 64.875031 -0.00171875 C 65.527375 -1.529062 66.148469 -2.99 66.867219 -2.99 C 67.589875 -2.99 68.210969 -1.529062 68.863313 -0.00171875 C 69.51175 1.529531 70.132844 2.990469 70.8555 2.990469 C 71.851594 2.990469 72.347688 -0.00171875 73.343781 -0.00171875 L 78.664094 -0.00171875 " transform="matrix(1, 0, 0, -1, 19.707, 42.385)"/>
</g>
<path fill="none" stroke-width="0.6376" stroke-linecap="round" stroke-linejoin="round" stroke="rgb(100%, 0%, 0%)" stroke-opacity="1" stroke-miterlimit="10" d="M -1.554364 2.0725 C -1.425457 1.295156 0.00032375 0.131094 0.387043 -0.00171875 C 0.00032375 -0.130625 -1.425457 -1.294687 -1.554364 -2.072031 " transform="matrix(1, 0, 0, -1, 98.37077, 42.385)"/>
</svg>
